G04 EasyPC Gerber Version 21.0.3 Build 4286 *
G04 #@! TF.Part,Single*
G04 #@! TF.FileFunction,Drillmap *
G04 #@! TF.FilePolarity,Positive *
%FSLAX35Y35*%
%MOIN*%
%ADD10C,0.00500*%
%ADD24C,0.00800*%
G04 #@! TA.AperFunction,ComponentPad*
%ADD82C,0.10000*%
X0Y0D02*
D02*
D10*
X24180Y22085D02*
Y25835D01*
Y23961D02*
X25117D01*
X27305Y25835*
X25117Y23961D02*
X27305Y22085D01*
X24180Y218936D02*
Y222686D01*
Y220811D02*
X25117D01*
X27305Y222686*
X25117Y220811D02*
X27305Y218936D01*
X27506Y53444D02*
Y57194D01*
X30631Y53444*
Y57194*
X27506Y63444D02*
Y67194D01*
X30631Y63444*
Y67194*
X45006Y154068D02*
Y150318D01*
X48131*
X45006Y185320D02*
Y181570D01*
X48131*
X52194Y70634D02*
X52819Y70321D01*
X53131Y69696*
X52819Y69071*
X52194Y68759*
X50006*
Y72509*
X52194*
X52819Y72196*
X53131Y71571*
X52819Y70946*
X52194Y70634*
X50006*
X52194Y80476D02*
X52819Y80164D01*
X53131Y79539*
X52819Y78914*
X52194Y78601*
X50006*
Y82351*
X52194*
X52819Y82039*
X53131Y81414*
X52819Y80789*
X52194Y80476*
X50006*
X52194Y90319D02*
X52819Y90006D01*
X53131Y89381*
X52819Y88756*
X52194Y88444*
X50006*
Y92194*
X52194*
X52819Y91881*
X53131Y91256*
X52819Y90631*
X52194Y90319*
X50006*
X55006Y115944D02*
Y119694D01*
X56569Y117819*
X58131Y119694*
Y115944*
X55006Y154068D02*
Y150318D01*
X58131*
X55006Y185320D02*
Y181570D01*
X58131*
X61256Y24694D02*
Y28444D01*
X64381*
X63756Y26569D02*
X61256D01*
Y24694D02*
X64381D01*
X61256Y39694D02*
Y43444D01*
X64381*
X63756Y41569D02*
X61256D01*
Y39694D02*
X64381D01*
X65006Y115944D02*
Y119694D01*
X66569Y117819*
X68131Y119694*
Y115944*
X65006Y154068D02*
Y150318D01*
X68131*
X65006Y185320D02*
Y181570D01*
X68131*
X72194Y215319D02*
X72819Y215006D01*
X73131Y214381*
X72819Y213756*
X72194Y213444*
X70006*
Y217194*
X72194*
X72819Y216881*
X73131Y216256*
X72819Y215631*
X72194Y215319*
X70006*
X73847Y70634D02*
X74472Y70321D01*
X74785Y69696*
X74472Y69071*
X73847Y68759*
X71660*
Y72509*
X73847*
X74472Y72196*
X74785Y71571*
X74472Y70946*
X73847Y70634*
X71660*
X73847Y80476D02*
X74472Y80164D01*
X74785Y79539*
X74472Y78914*
X73847Y78601*
X71660*
Y82351*
X73847*
X74472Y82039*
X74785Y81414*
X74472Y80789*
X73847Y80476*
X71660*
X73847Y90319D02*
X74472Y90006D01*
X74785Y89381*
X74472Y88756*
X73847Y88444*
X71660*
Y92194*
X73847*
X74472Y91881*
X74785Y91256*
X74472Y90631*
X73847Y90319*
X71660*
X77194Y132819D02*
X77819Y132506D01*
X78131Y131881*
X77819Y131256*
X77194Y130944*
X75006*
Y134694*
X77194*
X77819Y134381*
X78131Y133756*
X77819Y133131*
X77194Y132819*
X75006*
Y154068D02*
Y150318D01*
X78131*
X75006Y185320D02*
Y181570D01*
X78131*
X75006Y200944D02*
Y204694D01*
X78131*
X77506Y202819D02*
X75006D01*
Y200944D02*
X78131D01*
X82194Y215319D02*
X82819Y215006D01*
X83131Y214381*
X82819Y213756*
X82194Y213444*
X80006*
Y217194*
X82194*
X82819Y216881*
X83131Y216256*
X82819Y215631*
X82194Y215319*
X80006*
X80794Y255944D02*
Y259694D01*
Y257819D02*
X81731D01*
X83919Y259694*
X81731Y257819D02*
X83919Y255944D01*
X84694Y27819D02*
X85319Y27506D01*
X85631Y26881*
X85319Y26256*
X84694Y25944*
X82506*
Y29694*
X84694*
X85319Y29381*
X85631Y28756*
X85319Y28131*
X84694Y27819*
X82506*
X84694Y47819D02*
X85319Y47506D01*
X85631Y46881*
X85319Y46256*
X84694Y45944*
X82506*
Y49694*
X84694*
X85319Y49381*
X85631Y48756*
X85319Y48131*
X84694Y47819*
X82506*
X85006Y154068D02*
Y150318D01*
X88131*
X85006Y185320D02*
Y181570D01*
X88131*
X92194Y215319D02*
X92819Y215006D01*
X93131Y214381*
X92819Y213756*
X92194Y213444*
X90006*
Y217194*
X92194*
X92819Y216881*
X93131Y216256*
X92819Y215631*
X92194Y215319*
X90006*
X97194Y132819D02*
X97819Y132506D01*
X98131Y131881*
X97819Y131256*
X97194Y130944*
X95006*
Y134694*
X97194*
X97819Y134381*
X98131Y133756*
X97819Y133131*
X97194Y132819*
X95006*
Y154068D02*
Y150318D01*
X98131*
X95006Y185320D02*
Y181570D01*
X98131*
X95006Y200944D02*
Y204694D01*
X98131*
X97506Y202819D02*
X95006D01*
Y200944D02*
X98131D01*
X100006Y45944D02*
Y49694D01*
X102194*
X102819Y49381*
X103131Y48756*
X102819Y48131*
X102194Y47819*
X100006*
X102194Y215319D02*
X102819Y215006D01*
X103131Y214381*
X102819Y213756*
X102194Y213444*
X100006*
Y217194*
X102194*
X102819Y216881*
X103131Y216256*
X102819Y215631*
X102194Y215319*
X100006*
X105006Y154068D02*
Y150318D01*
X108131*
X105006Y185320D02*
Y181570D01*
X108131*
X107506Y70186D02*
Y71436D01*
X107819Y72061*
X108131Y72374*
X108756Y72686*
X109381*
X110006Y72374*
X110319Y72061*
X110631Y71436*
Y70186*
X110319Y69561*
X110006Y69248*
X109381Y68936*
X108756*
X108131Y69248*
X107819Y69561*
X107506Y70186*
Y88690D02*
Y89940D01*
X107819Y90565*
X108131Y90878*
X108756Y91190*
X109381*
X110006Y90878*
X110319Y90565*
X110631Y89940*
Y88690*
X110319Y88065*
X110006Y87752*
X109381Y87440*
X108756*
X108131Y87752*
X107819Y88065*
X107506Y88690*
Y107194D02*
Y108444D01*
X107819Y109069*
X108131Y109381*
X108756Y109694*
X109381*
X110006Y109381*
X110319Y109069*
X110631Y108444*
Y107194*
X110319Y106569*
X110006Y106256*
X109381Y105944*
X108756*
X108131Y106256*
X107819Y106569*
X107506Y107194*
X109809Y255944D02*
Y259694D01*
X111685*
X112309Y259381*
X112622Y259069*
X112935Y258444*
Y257194*
X112622Y256569*
X112309Y256256*
X111685Y255944*
X109809*
X110006Y45944D02*
Y49694D01*
X112194*
X112819Y49381*
X113131Y48756*
X112819Y48131*
X112194Y47819*
X110006*
X114298Y245944D02*
Y249694D01*
X116173*
X116798Y249381*
X117110Y249069*
X117423Y248444*
Y247194*
X117110Y246569*
X116798Y246256*
X116173Y245944*
X114298*
Y265944D02*
Y269694D01*
X116173*
X116798Y269381*
X117110Y269069*
X117423Y268444*
Y267194*
X117110Y266569*
X116798Y266256*
X116173Y265944*
X114298*
X115006Y154068D02*
Y150318D01*
X118131*
X115006Y185320D02*
Y181570D01*
X118131*
X118786Y255944D02*
Y259694D01*
X120661*
X121286Y259381*
X121598Y259069*
X121911Y258444*
Y257194*
X121598Y256569*
X121286Y256256*
X120661Y255944*
X118786*
X120006Y45944D02*
Y49694D01*
X122194*
X122819Y49381*
X123131Y48756*
X122819Y48131*
X122194Y47819*
X120006*
X122194Y132819D02*
X122819Y132506D01*
X123131Y131881*
X122819Y131256*
X122194Y130944*
X120006*
Y134694*
X122194*
X122819Y134381*
X123131Y133756*
X122819Y133131*
X122194Y132819*
X120006*
X123274Y245944D02*
Y249694D01*
X125149*
X125774Y249381*
X126087Y249069*
X126399Y248444*
Y247194*
X126087Y246569*
X125774Y246256*
X125149Y245944*
X123274*
Y265944D02*
Y269694D01*
X125149*
X125774Y269381*
X126087Y269069*
X126399Y268444*
Y267194*
X126087Y266569*
X125774Y266256*
X125149Y265944*
X123274*
X125006Y154068D02*
Y150318D01*
X128131*
X125006Y185320D02*
Y181570D01*
X128131*
X127762Y255944D02*
Y259694D01*
X129637*
X130262Y259381*
X130575Y259069*
X130887Y258444*
Y257194*
X130575Y256569*
X130262Y256256*
X129637Y255944*
X127762*
X132250Y245944D02*
Y249694D01*
X134126*
X134750Y249381*
X135063Y249069*
X135376Y248444*
Y247194*
X135063Y246569*
X134750Y246256*
X134126Y245944*
X132250*
Y265944D02*
Y269694D01*
X134126*
X134750Y269381*
X135063Y269069*
X135376Y268444*
Y267194*
X135063Y266569*
X134750Y266256*
X134126Y265944*
X132250*
X135006Y154068D02*
Y150318D01*
X138131*
X135006Y185320D02*
Y181570D01*
X138131*
X136739Y255944D02*
Y259694D01*
X138614*
X139239Y259381*
X139551Y259069*
X139864Y258444*
Y257194*
X139551Y256569*
X139239Y256256*
X138614Y255944*
X136739*
X139694Y27819D02*
X140319Y27506D01*
X140631Y26881*
X140319Y26256*
X139694Y25944*
X137506*
Y29694*
X139694*
X140319Y29381*
X140631Y28756*
X140319Y28131*
X139694Y27819*
X137506*
X139694Y47819D02*
X140319Y47506D01*
X140631Y46881*
X140319Y46256*
X139694Y45944*
X137506*
Y49694*
X139694*
X140319Y49381*
X140631Y48756*
X140319Y48131*
X139694Y47819*
X137506*
X140006Y70186D02*
Y71436D01*
X140319Y72061*
X140631Y72374*
X141256Y72686*
X141881*
X142506Y72374*
X142819Y72061*
X143131Y71436*
Y70186*
X142819Y69561*
X142506Y69248*
X141881Y68936*
X141256*
X140631Y69248*
X140319Y69561*
X140006Y70186*
Y88690D02*
Y89940D01*
X140319Y90565*
X140631Y90878*
X141256Y91190*
X141881*
X142506Y90878*
X142819Y90565*
X143131Y89940*
Y88690*
X142819Y88065*
X142506Y87752*
X141881Y87440*
X141256*
X140631Y87752*
X140319Y88065*
X140006Y88690*
Y107194D02*
Y108444D01*
X140319Y109069*
X140631Y109381*
X141256Y109694*
X141881*
X142506Y109381*
X142819Y109069*
X143131Y108444*
Y107194*
X142819Y106569*
X142506Y106256*
X141881Y105944*
X141256*
X140631Y106256*
X140319Y106569*
X140006Y107194*
X142194Y132819D02*
X142819Y132506D01*
X143131Y131881*
X142819Y131256*
X142194Y130944*
X140006*
Y134694*
X142194*
X142819Y134381*
X143131Y133756*
X142819Y133131*
X142194Y132819*
X140006*
X142194Y197819D02*
X142819Y197506D01*
X143131Y196881*
X142819Y196256*
X142194Y195944*
X140006*
Y199694*
X142194*
X142819Y199381*
X143131Y198756*
X142819Y198131*
X142194Y197819*
X140006*
X142194Y217819D02*
X142819Y217506D01*
X143131Y216881*
X142819Y216256*
X142194Y215944*
X140006*
Y219694*
X142194*
X142819Y219381*
X143131Y218756*
X142819Y218131*
X142194Y217819*
X140006*
X141227Y245944D02*
Y249694D01*
X143102*
X143727Y249381*
X144039Y249069*
X144352Y248444*
Y247194*
X144039Y246569*
X143727Y246256*
X143102Y245944*
X141227*
Y265944D02*
Y269694D01*
X143102*
X143727Y269381*
X144039Y269069*
X144352Y268444*
Y267194*
X144039Y266569*
X143727Y266256*
X143102Y265944*
X141227*
X145006Y154068D02*
Y150318D01*
X148131*
X145006Y185320D02*
Y181570D01*
X148131*
X145715Y255944D02*
Y259694D01*
X147590*
X148215Y259381*
X148528Y259069*
X148840Y258444*
Y257194*
X148528Y256569*
X148215Y256256*
X147590Y255944*
X145715*
X152194Y122506D02*
X153131D01*
Y122194*
X152819Y121569*
X152506Y121256*
X151881Y120944*
X151256*
X150631Y121256*
X150319Y121569*
X150006Y122194*
Y123444*
X150319Y124069*
X150631Y124381*
X151256Y124694*
X151881*
X152506Y124381*
X152819Y124069*
X153131Y123444*
X150203Y245944D02*
Y249694D01*
X152078*
X152703Y249381*
X153016Y249069*
X153328Y248444*
Y247194*
X153016Y246569*
X152703Y246256*
X152078Y245944*
X150203*
Y265944D02*
Y269694D01*
X152078*
X152703Y269381*
X153016Y269069*
X153328Y268444*
Y267194*
X153016Y266569*
X152703Y266256*
X152078Y265944*
X150203*
X155006Y154068D02*
Y150318D01*
X158131*
X155006Y185320D02*
Y181570D01*
X158131*
X157194Y197819D02*
X157819Y197506D01*
X158131Y196881*
X157819Y196256*
X157194Y195944*
X155006*
Y199694*
X157194*
X157819Y199381*
X158131Y198756*
X157819Y198131*
X157194Y197819*
X155006*
X157194Y217819D02*
X157819Y217506D01*
X158131Y216881*
X157819Y216256*
X157194Y215944*
X155006*
Y219694*
X157194*
X157819Y219381*
X158131Y218756*
X157819Y218131*
X157194Y217819*
X155006*
X165006Y154068D02*
Y150318D01*
X168131*
X165006Y185320D02*
Y181570D01*
X168131*
X167506Y25944D02*
Y29694D01*
X170631*
X170006Y27819D02*
X167506D01*
Y25944D02*
X170631D01*
X167506Y40944D02*
Y44694D01*
X170631*
X170006Y42819D02*
X167506D01*
Y40944D02*
X170631D01*
X172194Y197819D02*
X172819Y197506D01*
X173131Y196881*
X172819Y196256*
X172194Y195944*
X170006*
Y199694*
X172194*
X172819Y199381*
X173131Y198756*
X172819Y198131*
X172194Y197819*
X170006*
X172194Y217819D02*
X172819Y217506D01*
X173131Y216881*
X172819Y216256*
X172194Y215944*
X170006*
Y219694*
X172194*
X172819Y219381*
X173131Y218756*
X172819Y218131*
X172194Y217819*
X170006*
X172506Y70186D02*
Y71436D01*
X172819Y72061*
X173131Y72374*
X173756Y72686*
X174381*
X175006Y72374*
X175319Y72061*
X175631Y71436*
Y70186*
X175319Y69561*
X175006Y69248*
X174381Y68936*
X173756*
X173131Y69248*
X172819Y69561*
X172506Y70186*
Y88690D02*
Y89940D01*
X172819Y90565*
X173131Y90878*
X173756Y91190*
X174381*
X175006Y90878*
X175319Y90565*
X175631Y89940*
Y88690*
X175319Y88065*
X175006Y87752*
X174381Y87440*
X173756*
X173131Y87752*
X172819Y88065*
X172506Y88690*
Y107194D02*
Y108444D01*
X172819Y109069*
X173131Y109381*
X173756Y109694*
X174381*
X175006Y109381*
X175319Y109069*
X175631Y108444*
Y107194*
X175319Y106569*
X175006Y106256*
X174381Y105944*
X173756*
X173131Y106256*
X172819Y106569*
X172506Y107194*
X175006Y154068D02*
Y150318D01*
X178131*
X175006Y185320D02*
Y181570D01*
X178131*
X179219Y255944D02*
Y259694D01*
Y257819D02*
X180156D01*
X182344Y259694*
X180156Y257819D02*
X182344Y255944D01*
X187194Y197819D02*
X187819Y197506D01*
X188131Y196881*
X187819Y196256*
X187194Y195944*
X185006*
Y199694*
X187194*
X187819Y199381*
X188131Y198756*
X187819Y198131*
X187194Y197819*
X185006*
X187194Y217819D02*
X187819Y217506D01*
X188131Y216881*
X187819Y216256*
X187194Y215944*
X185006*
Y219694*
X187194*
X187819Y219381*
X188131Y218756*
X187819Y218131*
X187194Y217819*
X185006*
X205006Y70186D02*
Y71436D01*
X205319Y72061*
X205631Y72374*
X206256Y72686*
X206881*
X207506Y72374*
X207819Y72061*
X208131Y71436*
Y70186*
X207819Y69561*
X207506Y69248*
X206881Y68936*
X206256*
X205631Y69248*
X205319Y69561*
X205006Y70186*
Y88690D02*
Y89940D01*
X205319Y90565*
X205631Y90878*
X206256Y91190*
X206881*
X207506Y90878*
X207819Y90565*
X208131Y89940*
Y88690*
X207819Y88065*
X207506Y87752*
X206881Y87440*
X206256*
X205631Y87752*
X205319Y88065*
X205006Y88690*
Y107194D02*
Y108444D01*
X205319Y109069*
X205631Y109381*
X206256Y109694*
X206881*
X207506Y109381*
X207819Y109069*
X208131Y108444*
Y107194*
X207819Y106569*
X207506Y106256*
X206881Y105944*
X206256*
X205631Y106256*
X205319Y106569*
X205006Y107194*
X213444Y176884D02*
X214069Y176571D01*
X214381Y175946*
X214069Y175321*
X213444Y175009*
X211256*
Y178759*
X213444*
X214069Y178446*
X214381Y177821*
X214069Y177196*
X213444Y176884*
X211256*
X213444Y186726D02*
X214069Y186414D01*
X214381Y185789*
X214069Y185164*
X213444Y184851*
X211256*
Y188601*
X213444*
X214069Y188289*
X214381Y187664*
X214069Y187039*
X213444Y186726*
X211256*
X213444Y196569D02*
X214069Y196256D01*
X214381Y195631*
X214069Y195006*
X213444Y194694*
X211256*
Y198444*
X213444*
X214069Y198131*
X214381Y197506*
X214069Y196881*
X213444Y196569*
X211256*
X218756Y132194D02*
Y135944D01*
X220944*
X221569Y135631*
X221881Y135006*
X221569Y134381*
X220944Y134069*
X218756*
X220944D02*
X221881Y132194D01*
X218756Y142194D02*
Y145944D01*
X220944*
X221569Y145631*
X221881Y145006*
X221569Y144381*
X220944Y144069*
X218756*
X220944D02*
X221881Y142194D01*
X218756Y152194D02*
Y155944D01*
X220944*
X221569Y155631*
X221881Y155006*
X221569Y154381*
X220944Y154069*
X218756*
X220944D02*
X221881Y152194D01*
X228756Y132194D02*
Y135944D01*
X230944*
X231569Y135631*
X231881Y135006*
X231569Y134381*
X230944Y134069*
X228756*
X230944D02*
X231881Y132194D01*
X228756Y142194D02*
Y145944D01*
X230944*
X231569Y145631*
X231881Y145006*
X231569Y144381*
X230944Y144069*
X228756*
X230944D02*
X231881Y142194D01*
X228756Y152194D02*
Y155944D01*
X230944*
X231569Y155631*
X231881Y155006*
X231569Y154381*
X230944Y154069*
X228756*
X230944D02*
X231881Y152194D01*
X232841Y22085D02*
Y25835D01*
Y23961D02*
X233778D01*
X235966Y25835*
X233778Y23961D02*
X235966Y22085D01*
X232841Y218936D02*
Y222686D01*
Y220811D02*
X233778D01*
X235966Y222686*
X233778Y220811D02*
X235966Y218936D01*
X235097Y176884D02*
X235722Y176571D01*
X236035Y175946*
X235722Y175321*
X235097Y175009*
X232910*
Y178759*
X235097*
X235722Y178446*
X236035Y177821*
X235722Y177196*
X235097Y176884*
X232910*
X235097Y186726D02*
X235722Y186414D01*
X236035Y185789*
X235722Y185164*
X235097Y184851*
X232910*
Y188601*
X235097*
X235722Y188289*
X236035Y187664*
X235722Y187039*
X235097Y186726*
X232910*
X235097Y196569D02*
X235722Y196256D01*
X236035Y195631*
X235722Y195006*
X235097Y194694*
X232910*
Y198444*
X235097*
X235722Y198131*
X236035Y197506*
X235722Y196881*
X235097Y196569*
X232910*
D02*
D24*
X400Y400D02*
X236620D01*
Y236620*
X197250*
Y275991*
X39770*
Y236620*
X400*
Y400*
D02*
D82*
X14180Y16148D03*
Y212998D03*
X17506Y47506D03*
Y57506D03*
X35006Y144380D03*
Y175632D03*
X40006Y62821D03*
Y72664D03*
Y82506D03*
X45006Y110006D03*
Y144380D03*
Y175632D03*
X51256Y18756D03*
Y33756D03*
X55006Y110006D03*
Y144380D03*
Y175632D03*
X60006Y207506D03*
X61660Y62821D03*
Y72664D03*
Y82506D03*
X65006Y125006D03*
Y144380D03*
Y175632D03*
Y195006D03*
X70006Y207506D03*
X70794Y250006D03*
X72506Y20006D03*
Y40006D03*
X75006Y144380D03*
Y175632D03*
X80006Y207506D03*
X85006Y125006D03*
Y144380D03*
Y175632D03*
Y195006D03*
X90006Y40006D03*
Y207506D03*
X95006Y144380D03*
Y175632D03*
X97506Y62998D03*
Y81502D03*
Y100006D03*
X99809Y250006D03*
X100006Y40006D03*
X104298Y240006D03*
Y260006D03*
X105006Y144380D03*
Y175632D03*
X108786Y250006D03*
X110006Y40006D03*
Y125006D03*
X113274Y240006D03*
Y260006D03*
X115006Y144380D03*
Y175632D03*
X117762Y250006D03*
X122250Y240006D03*
Y260006D03*
X125006Y144380D03*
Y175632D03*
X126739Y250006D03*
X127506Y20006D03*
Y40006D03*
X130006Y62998D03*
Y81502D03*
Y100006D03*
Y125006D03*
Y190006D03*
Y210006D03*
X131227Y240006D03*
Y260006D03*
X135006Y144380D03*
Y175632D03*
X135715Y250006D03*
X140006Y115006D03*
X140203Y240006D03*
Y260006D03*
X145006Y144380D03*
Y175632D03*
Y190006D03*
Y210006D03*
X155006Y144380D03*
Y175632D03*
X157506Y20006D03*
Y35006D03*
X160006Y190006D03*
Y210006D03*
X162506Y62998D03*
Y81502D03*
Y100006D03*
X165006Y144380D03*
Y175632D03*
X169219Y250006D03*
X175006Y190006D03*
Y210006D03*
X195006Y62998D03*
Y81502D03*
Y100006D03*
X201256Y169071D03*
Y178914D03*
Y188756D03*
X208756Y126256D03*
Y136256D03*
Y146256D03*
X218756Y126256D03*
Y136256D03*
Y146256D03*
X222841Y16148D03*
Y212998D03*
X222910Y169071D03*
Y178914D03*
Y188756D03*
X0Y0D02*
M02*
