G04 EasyPC Gerber Version 21.0.3 Build 4286 *
G04 #@! TF.Part,Single*
G04 #@! TF.FileFunction,Soldermask,Top *
G04 #@! TF.FilePolarity,Negative *
%FSLAX35Y35*%
%MOIN*%
G04 #@! TA.AperFunction,ComponentPad*
%ADD103R,0.07000X0.09000*%
%ADD101R,0.05461X0.05461*%
%ADD112R,0.07000X0.07000*%
G04 #@! TD.AperFunction*
%ADD24C,0.00800*%
G04 #@! TA.AperFunction,ComponentPad*
%ADD102C,0.05461*%
%ADD29C,0.07000*%
%ADD99C,0.07102*%
%ADD105C,0.08000*%
G04 #@! TA.AperFunction,WasherPad*
%ADD98C,0.16748*%
G04 #@! TA.AperFunction,ComponentPad*
%ADD100C,0.19898*%
%ADD104O,0.12811X0.08874*%
X0Y0D02*
D02*
D24*
X400Y400D02*
X236620D01*
Y236620*
X197250*
Y275991*
X39770*
Y236620*
X400*
Y400*
D02*
D29*
X40006Y62821D03*
Y72664D03*
Y82506D03*
X51256Y18756D03*
Y33756D03*
X60006Y207506D03*
X61660Y62821D03*
Y72664D03*
Y82506D03*
X65006Y125006D03*
Y195006D03*
X70006Y207506D03*
X72506Y20006D03*
Y40006D03*
X80006Y207506D03*
X85006Y125006D03*
Y195006D03*
X90006Y207506D03*
X110006Y125006D03*
X127506Y20006D03*
Y40006D03*
X130006Y125006D03*
Y190006D03*
Y210006D03*
X145006Y190006D03*
Y210006D03*
X157506Y20006D03*
Y35006D03*
X160006Y190006D03*
Y210006D03*
X175006Y190006D03*
Y210006D03*
X201256Y169071D03*
Y178914D03*
Y188756D03*
X208756Y126256D03*
Y136256D03*
X218756Y126256D03*
Y136256D03*
Y146256D03*
X222910Y169071D03*
Y178914D03*
Y188756D03*
D02*
D98*
X14180Y16148D03*
Y212998D03*
X97506Y62998D03*
Y81502D03*
Y100006D03*
X130006Y62998D03*
Y81502D03*
Y100006D03*
X162506Y62998D03*
Y81502D03*
Y100006D03*
X195006Y62998D03*
Y81502D03*
Y100006D03*
X222841Y16148D03*
Y212998D03*
D02*
D99*
X99809Y250006D03*
X104298Y240006D03*
Y260006D03*
X108786Y250006D03*
X113274Y240006D03*
Y260006D03*
X117762Y250006D03*
X122250Y240006D03*
Y260006D03*
X126739Y250006D03*
X131227Y240006D03*
Y260006D03*
X135715Y250006D03*
X140203Y240006D03*
Y260006D03*
D02*
D100*
X70794Y250006D03*
X169219D03*
D02*
D101*
X165006Y175632D03*
D02*
D102*
X35006Y144380D03*
Y175632D03*
X45006Y144380D03*
Y175632D03*
X55006Y144380D03*
Y175632D03*
X65006Y144380D03*
Y175632D03*
X75006Y144380D03*
Y175632D03*
X85006Y144380D03*
Y175632D03*
X95006Y144380D03*
Y175632D03*
X105006Y144380D03*
Y175632D03*
X115006Y144380D03*
Y175632D03*
X125006Y144380D03*
Y175632D03*
X135006Y144380D03*
Y175632D03*
X145006Y144380D03*
Y175632D03*
X155006Y144380D03*
Y175632D03*
X165006Y144380D03*
D02*
D103*
X45006Y110006D03*
X55006D03*
D02*
D104*
X17506Y47506D03*
Y57506D03*
D02*
D105*
X90006Y40006D03*
X100006D03*
X110006D03*
D02*
D112*
X208756Y146256D03*
X0Y0D02*
M02*
