G04 EasyPC Gerber Version 21.0.3 Build 4286 *
G04 #@! TF.Part,Single*
G04 #@! TF.FileFunction,Copper,L1,Top *
G04 #@! TF.FilePolarity,Positive *
%FSLAX35Y35*%
%MOIN*%
G04 #@! TA.AperFunction,ComponentPad*
%ADD90R,0.06000X0.08000*%
%ADD88R,0.04461X0.04461*%
%ADD110R,0.06000X0.06000*%
G04 #@! TD.AperFunction*
%ADD10C,0.00500*%
%ADD24C,0.00800*%
%ADD11C,0.01000*%
%ADD26C,0.01500*%
%ADD96C,0.02362*%
%ADD111C,0.03100*%
%ADD95C,0.03150*%
G04 #@! TA.AperFunction,ViaPad*
%ADD23C,0.03200*%
G04 #@! TA.AperFunction,ComponentPad*
%ADD89C,0.04461*%
%ADD14C,0.06000*%
%ADD86C,0.06102*%
%ADD92C,0.07000*%
G04 #@! TA.AperFunction,WasherPad*
%ADD85C,0.15748*%
G04 #@! TA.AperFunction,ComponentPad*
%ADD87C,0.18898*%
%ADD91O,0.11811X0.07874*%
X0Y0D02*
D02*
D10*
X230970Y230970D02*
X197250D01*
G75*
G02X191600Y236620J5650*
G01*
Y270341*
X45420*
Y236620*
G75*
G02X39770Y230970I-5650*
G01*
X6050*
Y216430*
G75*
G02X23004Y212998I8130J-3431*
G01*
G75*
G02X6050Y209567I-8824*
G01*
Y19580*
G75*
G02X23004Y16148I8130J-3431*
G01*
G75*
G02X6050Y12717I-8824*
G01*
Y6050*
X230970*
Y12717*
G75*
G02X214017Y16148I-8130J3431*
G01*
G75*
G02X230970Y19580I8824*
G01*
Y209567*
G75*
G02X214017Y212998I-8130J3431*
G01*
G75*
G02X230970Y216430I8824*
G01*
Y230970*
X51826Y175632D02*
G75*
G02X58187I3180D01*
G01*
G75*
G02X51826I-3180*
G01*
X76706Y178320D02*
G75*
G02X78187Y175632I-1700J-2688D01*
G01*
G75*
G02X71826I-3180*
G01*
G75*
G02X73306Y178320I3180*
G01*
Y181802*
X71802Y183306*
X67509*
G75*
G02X66304Y183804I-2J1700*
G01*
X63804Y186304*
G75*
G02X63306Y187506I1202J1202*
G01*
Y191441*
G75*
G02X61283Y196325I1700J3565*
G01*
X58804Y198804*
G75*
G02X58306Y200006I1202J1202*
G01*
Y203941*
G75*
G02X56056Y207506I1700J3565*
G01*
G75*
G02X63956I3950*
G01*
G75*
G02X61706Y203941I-3950*
G01*
Y200711*
X63687Y198730*
G75*
G02X66706Y191441I1319J-3723*
G01*
Y188211*
X68211Y186706*
X72504*
G75*
G02X73708Y186208I2J-1700*
G01*
X76208Y183708*
G75*
G02X76706Y182506I-1202J-1202*
G01*
Y178320*
X61826Y175632D02*
G75*
G02X68187I3180D01*
G01*
G75*
G02X61826I-3180*
G01*
X70794Y260705D02*
G75*
G02X81493Y250006J-10699D01*
G01*
G75*
G02X70794Y239307I-10699*
G01*
G75*
G02X60095Y250006J10699*
G01*
G75*
G02X70794Y260705I10699*
G01*
X75756Y207506D02*
G75*
G02X84256I4250D01*
G01*
G75*
G02X75756I-4250*
G01*
X86056D02*
G75*
G02X93956I3950D01*
G01*
G75*
G02X91706Y203941I-3950*
G01*
Y200006*
G75*
G02X91208Y198804I-1700J0*
G01*
X88730Y196325*
G75*
G02X86706Y191441I-3723J-1319*
G01*
Y178320*
G75*
G02X88187Y175632I-1700J-2688*
G01*
G75*
G02X81826I-3180*
G01*
G75*
G02X83306Y178320I3180*
G01*
Y191441*
G75*
G02X86325Y198730I1700J3565*
G01*
X88306Y200711*
Y203941*
G75*
G02X86056Y207506I1700J3565*
G01*
X126441Y191706D02*
G75*
G02X133956Y190006I3565J-1700D01*
G01*
G75*
G02X126441Y188306I-3950*
G01*
X105711*
X101706Y184302*
Y172506*
G75*
G02X101208Y171304I-1700J0*
G01*
X98708Y168804*
G75*
G02X96619Y168556I-1202J1202*
G01*
X50607*
X46456Y164406*
Y147211*
G75*
G02X48187Y144380I-1450J-2831*
G01*
G75*
G02X41826I-3180*
G01*
G75*
G02X43556Y147211I3180*
G01*
Y165006*
G75*
G02X43983Y166033I1450*
G01*
X48979Y171030*
G75*
G02X50006Y171456I1027J-1024*
G01*
X96552*
X98306Y173211*
Y174527*
G75*
G02X91526Y175632I-3300J1106*
G01*
G75*
G02X98306Y176738I3480*
G01*
Y185006*
G75*
G02X98804Y186208I1700J0*
G01*
X103804Y191208*
G75*
G02X105009Y191706I1202J-1202*
G01*
X126441*
X218660Y169071D02*
G75*
G02X227160I4250D01*
G01*
G75*
G02X220764Y165403I-4250J0*
G01*
X226208Y159958*
G75*
G02X226706Y158756I-1202J-1202*
G01*
Y135006*
G75*
G02X226208Y133804I-1700J0*
G01*
X222458Y130054*
G75*
G02X221424Y129565I-1202J1202*
G01*
G75*
G02X218756Y122006I-2668J-3308*
G01*
G75*
G02X216078Y129556J4250*
G01*
X214461*
X212480Y127575*
G75*
G02X208756Y122306I-3723J-1319*
G01*
G75*
G02Y130206J3950*
G01*
G75*
G02X210075Y129980J-3950*
G01*
X212554Y132458*
G75*
G02X213759Y132956I1202J-1202*
G01*
X216585*
G75*
G02X218756Y140206I2171J3300*
G01*
G75*
G02X222448Y134853I0J-3950*
G01*
X223306Y135711*
Y158052*
X212554Y168804*
G75*
G02X212056Y170006I1202J1202*
G01*
Y205552*
X209302Y208306*
X178572*
G75*
G02X173687Y206283I-3565J1700*
G01*
X170456Y203052*
Y185006*
G75*
G02X169958Y183804I-1700J0*
G01*
X166706Y180552*
Y178813*
X168187*
Y172531*
X172481*
Y186969*
G75*
G02X173306Y193572I2525J3038*
G01*
Y200006*
G75*
G02X173804Y201208I1700J0*
G01*
X178804Y206208*
G75*
G02X180009Y206706I1202J-1202*
G01*
X206254*
G75*
G02X207458Y206208I2J-1700*
G01*
X209958Y203708*
G75*
G02X210456Y202506I-1202J-1202*
G01*
Y168211*
X219958Y158708*
G75*
G02X220456Y157506I-1202J-1202*
G01*
Y149822*
G75*
G02X218756Y142306I-1700J-3565*
G01*
G75*
G02X217056Y149822J3950*
G01*
Y156802*
X207554Y166304*
G75*
G02X207056Y167506I1202J1202*
G01*
Y201802*
X205552Y203306*
X180711*
X176706Y199302*
Y193572*
G75*
G02X177531Y186969I-1700J-3565*
G01*
Y170006*
G75*
G02X175006Y167481I-2525*
G01*
X106052*
X101792Y163221*
G75*
G02X100003Y162481I-1785J1786*
G01*
X91052*
X87531Y158961*
Y146314*
G75*
G02Y142446I-2525J-1934*
G01*
Y128044*
G75*
G02X88044Y127531I-2525J-3038*
G01*
X106969*
G75*
G02X113956Y125006I3038J-2525*
G01*
G75*
G02X112506Y121948I-3950*
G01*
Y43688*
G75*
G02X113671Y42531I-2500J-3682*
G01*
X124469*
G75*
G02X130565Y42506I3038J-2525*
G01*
X152504*
G75*
G02X154274Y41774I2J-2500*
G01*
X157111Y38937*
G75*
G02X161456Y35006I395J-3930*
G01*
G75*
G02X153556I-3950*
G01*
G75*
G02X153576Y35401I3952J1*
G01*
X151471Y37506*
X130565*
G75*
G02X124469Y37481I-3058J2500*
G01*
X113671*
G75*
G02X105556Y40006I-3665J2525*
G01*
G75*
G02X107506Y43688I4450*
G01*
Y121948*
G75*
G02X106969Y122481I2500J3059*
G01*
X88044*
G75*
G02X81056Y125006I-3038J2525*
G01*
G75*
G02X82481Y128044I3950*
G01*
Y142446*
G75*
G02Y146314I2525J1934*
G01*
Y160003*
G75*
G02Y160006I806J2*
G01*
G75*
G02X83221Y161792I2525J1*
G01*
X88221Y166792*
G75*
G02X90010Y167531I1785J-1786*
G01*
X98961*
X102481Y171052*
Y173698*
G75*
G02X101826Y175632I2525J1934*
G01*
G75*
G02X108187I3180*
G01*
G75*
G02X107531Y173698I-3180*
G01*
Y172531*
X114301*
G75*
G02X111826Y175632I705J3101*
G01*
G75*
G02X118187I3180*
G01*
G75*
G02X115711Y172531I-3180*
G01*
X124301*
G75*
G02X123306Y178320I705J3101*
G01*
Y180006*
G75*
G02X123804Y181208I1700J0*
G01*
X126304Y183708*
G75*
G02X127509Y184206I1202J-1202*
G01*
X141802*
X143306Y185711*
Y186441*
G75*
G02X145006Y193956I1700J3565*
G01*
G75*
G02X146706Y186441J-3950*
G01*
Y185006*
G75*
G02X146208Y183804I-1700J0*
G01*
X143708Y181304*
G75*
G02X142504Y180806I-1202J1202*
G01*
X128211*
X126706Y179302*
Y178320*
G75*
G02X125711Y172531I-1700J-2688*
G01*
X134301*
G75*
G02X131826Y175632I705J3101*
G01*
G75*
G02X138187I3180*
G01*
G75*
G02X135711Y172531I-3180*
G01*
X144301*
G75*
G02X143306Y178320I705J3101*
G01*
Y180006*
G75*
G02X143804Y181208I1700J0*
G01*
X146304Y183708*
G75*
G02X147509Y184206I1202J-1202*
G01*
X156802*
X158306Y185711*
Y186441*
G75*
G02X160006Y193956I1700J3565*
G01*
G75*
G02X161706Y186441J-3950*
G01*
Y185006*
G75*
G02X161208Y183804I-1700J0*
G01*
X158708Y181304*
G75*
G02X157504Y180806I-1202J1202*
G01*
X148211*
X146706Y179302*
Y178320*
G75*
G02X145711Y172531I-1700J-2688*
G01*
X154301*
G75*
G02X151826Y175632I705J3101*
G01*
G75*
G02X158187I3180*
G01*
G75*
G02X155711Y172531I-3180*
G01*
X161825*
Y178813*
X163306*
Y181256*
G75*
G02X163804Y182458I1700J0*
G01*
X167056Y185711*
Y203756*
G75*
G02X167554Y204958I1700J0*
G01*
X171283Y208687*
G75*
G02X178572Y211706I3723J1319*
G01*
X210004*
G75*
G02X211208Y211208I2J-1700*
G01*
X214958Y207458*
G75*
G02X215456Y206256I-1202J-1202*
G01*
Y180614*
X219344*
G75*
G02X226860Y178914I3565J-1700*
G01*
G75*
G02X219344Y177214I-3950*
G01*
X215456*
Y170711*
X219241Y166925*
G75*
G02X218660Y169071I3669J2146*
G01*
X197306D02*
G75*
G02X205206I3950D01*
G01*
G75*
G02X197306I-3950*
G01*
Y178914D02*
G75*
G02X205206I3950D01*
G01*
G75*
G02X197306I-3950*
G01*
Y188756D02*
G75*
G02X205206I3950D01*
G01*
G75*
G02X197306I-3950*
G01*
X111826Y144380D02*
G75*
G02X118187I3180D01*
G01*
G75*
G02X111826I-3180*
G01*
X120882Y62998D02*
G75*
G02X139130I9124D01*
G01*
G75*
G02X120882I-9124*
G01*
X205191Y137956D02*
G75*
G02X212706Y136256I3565J-1700D01*
G01*
G75*
G02X205191Y134556I-3950*
G01*
X198211*
X173708Y110054*
G75*
G02X172504Y109556I-1202J1202*
G01*
X153211*
X149206Y105552*
Y86256*
G75*
G02X148708Y85054I-1700J0*
G01*
X145251Y81596*
G75*
G02X145252Y81502I-2500J-89*
G01*
G75*
G02X142752Y79002I-2500*
G01*
X138469*
G75*
G02X121182Y81502I-8463J2500*
G01*
G75*
G02X138469Y84002I8824J0*
G01*
X142752*
G75*
G02X142846Y84001I5J-2501*
G01*
X145806Y86961*
Y106256*
G75*
G02X146304Y107458I1700J0*
G01*
X151304Y112458*
G75*
G02X152509Y112956I1202J-1202*
G01*
X171802*
X196304Y137458*
G75*
G02X197509Y137956I1202J-1202*
G01*
X205191*
X185882Y62998D02*
G75*
G02X204130I9124D01*
G01*
G75*
G02X185882I-9124*
G01*
X186182Y81502D02*
G75*
G02X203830I8824D01*
G01*
G75*
G02X186182I-8824*
G01*
Y100006D02*
G75*
G02X203830I8824D01*
G01*
G75*
G02X186182I-8824*
G01*
X153382Y62998D02*
G75*
G02X171630I9124D01*
G01*
G75*
G02X153382I-9124*
G01*
X153682Y81502D02*
G75*
G02X171330I8824D01*
G01*
G75*
G02X153682I-8824*
G01*
Y100006D02*
G75*
G02X171330I8824D01*
G01*
G75*
G02X153682I-8824*
G01*
X121182D02*
G75*
G02X138830I8824D01*
G01*
G75*
G02X121182I-8824*
G01*
X121826Y144380D02*
G75*
G02X128187I3180D01*
G01*
G75*
G02X121826I-3180*
G01*
X125756Y125006D02*
G75*
G02X134256I4250D01*
G01*
G75*
G02X125756I-4250*
G01*
X131826Y144380D02*
G75*
G02X138187I3180D01*
G01*
G75*
G02X131826I-3180*
G01*
X204806Y150207D02*
X212707D01*
Y142306*
X204806*
Y144556*
X200711*
X169958Y113804*
G75*
G02X168754Y113306I-1202J1202*
G01*
X141907*
G75*
G02X137456Y115006I-1901J1700*
G01*
G75*
G02X141907Y116706I2550*
G01*
X168052*
X198804Y147458*
G75*
G02X200009Y147956I1202J-1202*
G01*
X204806*
Y150207*
X141826Y144380D02*
G75*
G02X148187I3180D01*
G01*
G75*
G02X141826I-3180*
G01*
X151826D02*
G75*
G02X158187I3180D01*
G01*
G75*
G02X151826I-3180*
G01*
X161826D02*
G75*
G02X168187I3180D01*
G01*
G75*
G02X161826I-3180*
G01*
X101526D02*
G75*
G02X108487I3480D01*
G01*
G75*
G02X101526I-3480*
G01*
X91826D02*
G75*
G02X98187I3180D01*
G01*
G75*
G02X91826I-3180*
G01*
X153256Y20006D02*
G75*
G02X161756I4250D01*
G01*
G75*
G02X153256I-4250*
G01*
X123256D02*
G75*
G02X131756I4250D01*
G01*
G75*
G02X123256I-4250*
G01*
X88382Y62998D02*
G75*
G02X106630I9124D01*
G01*
G75*
G02X88382I-9124*
G01*
X95256Y40006D02*
G75*
G02X104756I4750D01*
G01*
G75*
G02X95256I-4750*
G01*
X88682Y81502D02*
G75*
G02X106330I8824D01*
G01*
G75*
G02X88682I-8824*
G01*
Y100006D02*
G75*
G02X106330I8824D01*
G01*
G75*
G02X88682I-8824*
G01*
X61441Y126706D02*
G75*
G02X68956Y125006I3565J-1700D01*
G01*
G75*
G02X61441Y123306I-3950*
G01*
X58211*
X56706Y121802*
Y114955*
X58955*
Y105057*
X51057*
Y114955*
X53306*
Y122506*
G75*
G02X53804Y123708I1700J0*
G01*
X56304Y126208*
G75*
G02X57509Y126706I1202J-1202*
G01*
X61441*
X86342Y42531D02*
G75*
G02X94456Y40006I3665J-2525D01*
G01*
G75*
G02X86342Y37481I-4450J0*
G01*
X75544*
G75*
G02X72506Y36056I-3038J2525*
G01*
G75*
G02X72144Y36073I-2J3949*
G01*
X68042Y31971*
G75*
G02X66253Y31231I-1785J1786*
G01*
X54294*
G75*
G02X47306Y33756I-3038J2525*
G01*
G75*
G02X47323Y34119I3949J2*
G01*
X38221Y43221*
G75*
G02X37481Y45006I1785J1785*
G01*
G75*
G02Y45007I694J0*
G01*
G75*
G02Y45010I806J2*
G01*
Y59783*
G75*
G02X40006Y66771I2525J3038*
G01*
G75*
G02X42531Y59783J-3950*
G01*
Y46052*
X50894Y37690*
G75*
G02X54294Y36281I363J-3933*
G01*
X65211*
X68573Y39644*
G75*
G02X68556Y40006I3933J361*
G01*
G75*
G02X75544Y42531I3950*
G01*
X86342*
X68256Y20006D02*
G75*
G02X76756I4250D01*
G01*
G75*
G02X68256I-4250*
G01*
X47006Y18756D02*
G75*
G02X55506I4250D01*
G01*
G75*
G02X47006I-4250*
G01*
X57710Y82506D02*
G75*
G02X65610I3950D01*
G01*
G75*
G02X57710I-3950*
G01*
X51826Y144380D02*
G75*
G02X58187I3180D01*
G01*
G75*
G02X51826I-3180*
G01*
X61826D02*
G75*
G02X68187I3180D01*
G01*
G75*
G02X61826I-3180*
G01*
X71826D02*
G75*
G02X78187I3180D01*
G01*
G75*
G02X71826I-3180*
G01*
X65756Y207506D02*
G75*
G02X74256I4250D01*
G01*
G75*
G02X65756I-4250*
G01*
X95508Y250006D02*
G75*
G02X104111I4301D01*
G01*
G75*
G02X95508I-4301*
G01*
X156056Y210006D02*
G75*
G02X163956I3950D01*
G01*
G75*
G02X161706Y206441I-3950*
G01*
Y202506*
G75*
G02X161208Y201304I-1700J0*
G01*
X158708Y198804*
G75*
G02X157504Y198306I-1202J1202*
G01*
X140009*
G75*
G02X138804Y198804I-2J1700*
G01*
X135054Y202554*
G75*
G02X134556Y203756I1202J1202*
G01*
Y230552*
X133052Y232056*
X128791*
G75*
G02X125999Y232249I-1285J1700*
G01*
X122244Y236005*
G75*
G02X118864Y237875I7J4002*
G01*
X116661*
G75*
G02X109887I-3387J2131*
G01*
X107684*
G75*
G02X100296Y240006I-3387J2131*
G01*
G75*
G02X107684Y242137I4001J0*
G01*
X109887*
G75*
G02X116661I3387J-2131*
G01*
X118864*
G75*
G02X125903Y238373I3387J-2131*
G01*
X128820Y235456*
X133754*
G75*
G02X134958Y234958I2J-1700*
G01*
X137458Y232458*
G75*
G02X137956Y231256I-1202J-1202*
G01*
Y204461*
X140711Y201706*
X156802*
X158306Y203211*
Y206441*
G75*
G02X156056Y210006I1700J3565*
G01*
X126056D02*
G75*
G02X133956I3950D01*
G01*
G75*
G02X126056I-3950*
G01*
X104298Y264007D02*
G75*
G02Y256005J-4001D01*
G01*
G75*
G02X100296Y260006J4001*
G01*
G75*
G02X104298Y264007I4001*
G01*
X104485Y250006D02*
G75*
G02X113087I4301D01*
G01*
G75*
G02X104485I-4301*
G01*
X113274Y264007D02*
G75*
G02Y256005J-4001D01*
G01*
G75*
G02X109273Y260006J4001*
G01*
G75*
G02X113274Y264007I4001*
G01*
X113461Y250006D02*
G75*
G02X122063I4301D01*
G01*
G75*
G02X113461I-4301*
G01*
X122250Y264007D02*
G75*
G02Y256005J-4001D01*
G01*
G75*
G02X118249Y260006J4001*
G01*
G75*
G02X122250Y264007I4001*
G01*
X126739Y254007D02*
G75*
G02X130740Y250006J-4001D01*
G01*
G75*
G02X126739Y246005I-4001*
G01*
G75*
G02X122737Y250006J4001*
G01*
G75*
G02X126739Y254007I4001*
G01*
X131227Y244007D02*
G75*
G02X135228Y240006J-4001D01*
G01*
G75*
G02X131227Y236005I-4001*
G01*
G75*
G02X127226Y240006J4001*
G01*
G75*
G02X131227Y244007I4001*
G01*
X147044Y213390D02*
G75*
G02X145006Y206056I-2038J-3384D01*
G01*
G75*
G02X143306Y213572J3950*
G01*
Y213756*
G75*
G02X143804Y214958I1700J0*
G01*
X144556Y215711*
Y263022*
X143022Y264556*
X136320*
X134315Y262551*
G75*
G02X131227Y256005I-3088J-2544*
G01*
G75*
G02X129393Y263563J4001*
G01*
G75*
G02X129720Y263984I1834J-1085*
G01*
X133499Y267763*
G75*
G02X136291Y267956I1507J-1507*
G01*
X143724*
G75*
G02X144929Y267458I2J-1700*
G01*
X147458Y264929*
G75*
G02X147956Y263727I-1202J-1202*
G01*
Y215006*
G75*
G02X147458Y213804I-1700J0*
G01*
X147044Y213390*
X140203Y264007D02*
G75*
G02Y256005J-4001D01*
G01*
G75*
G02X136202Y260006J4001*
G01*
G75*
G02X140203Y264007I4001*
G01*
X131414Y250006D02*
G75*
G02X140016I4301D01*
G01*
G75*
G02X131414I-4301*
G01*
X135902Y240006D02*
G75*
G02X144504I4301D01*
G01*
G75*
G02X135902I-4301*
G01*
X169219Y260705D02*
G75*
G02X179918Y250006J-10699D01*
G01*
G75*
G02X169219Y239307I-10699*
G01*
G75*
G02X158520Y250006J10699*
G01*
G75*
G02X169219Y260705I10699*
G01*
X40756Y115256D02*
X49256D01*
Y104756*
X40756*
Y115256*
X41826Y175632D02*
G75*
G02X48187I3180D01*
G01*
G75*
G02X41826I-3180*
G01*
X31826Y144380D02*
G75*
G02X38187I3180D01*
G01*
G75*
G02X31826I-3180*
G01*
Y175632D02*
G75*
G02X38187I3180D01*
G01*
G75*
G02X31826I-3180*
G01*
X36056Y72664D02*
G75*
G02X43956I3950D01*
G01*
G75*
G02X40006Y68714I-3950*
G01*
G75*
G02X39611Y68733I-1J3952*
G01*
X32506Y61628*
Y55006*
G75*
G02X31774Y53239I-2500*
G01*
X24274Y45739*
G75*
G02X23897Y45429I-1769J1768*
G01*
G75*
G02X19475Y42620I-4422J2078*
G01*
X15538*
G75*
G02Y52392J4886*
G01*
X19475*
G75*
G02X22669Y51204J-4886*
G01*
X27506Y56042*
Y62664*
G75*
G02X28239Y64431I2500*
G01*
X36076Y72269*
G75*
G02X36056Y72664I3933J394*
G01*
X61660Y76614D02*
G75*
G02Y68714J-3950D01*
G01*
G75*
G02X57710Y72664J3950*
G01*
G75*
G02X57715Y72859I3950J2*
G01*
X43170Y87349*
X21107*
X20164Y86406*
Y62343*
G75*
G02X19475Y52620I-689J-4837*
G01*
X15538*
G75*
G02X14849Y62343J4886*
G01*
Y87506*
G75*
G02X15628Y89387I2658*
G01*
X18126Y91884*
G75*
G02X20006Y92664I1880J-1878*
G01*
X44269*
G75*
G02X46146Y91887J-2657*
G01*
X61481Y76610*
G75*
G02X61660Y76614I176J-3945*
G01*
X57410Y62821D02*
G75*
G02X65910I4250D01*
G01*
G75*
G02X57410I-4250*
G01*
X36056Y82506D02*
G75*
G02X43956I3950D01*
G01*
G75*
G02X36056I-3950*
G01*
X218960Y188756D02*
G75*
G02X226860I3950D01*
G01*
G75*
G02X218960I-3950*
G01*
X214905Y20006D02*
G36*
X161756D01*
G75*
G02X153256I-4250*
G01*
X131756*
G75*
G02X123256I-4250*
G01*
X76756*
G75*
G02X68256I-4250*
G01*
X55319*
G75*
G02X55506Y18756I-4062J-1249*
G01*
G75*
G02X47006I-4250*
G01*
G75*
G02X47194Y20006I4250J1*
G01*
X22115*
G75*
G02X23004Y16148I-7936J-3858*
G01*
G75*
G02X6300Y12176I-8824*
G01*
Y6300*
X230720*
Y12176*
G75*
G02X214017Y16148I-7880J3972*
G01*
G75*
G02X214905Y20006I8824*
G01*
G37*
X68556Y40006D02*
G36*
X48577D01*
X50894Y37690*
G75*
G02X54294Y36281I362J-3934*
G01*
X65211*
X68573Y39644*
G75*
G02X68556Y39998I3786J354*
G01*
G75*
G02Y40006I3790J4*
G01*
G37*
X230720Y20120D02*
G36*
Y40006D01*
X156042*
X157111Y38937*
G75*
G02X161456Y35006I395J-3930*
G01*
G75*
G02X153556I-3950*
G01*
G75*
G02Y35014I3759J4*
G01*
G75*
G02X153576Y35401I3820*
G01*
X151471Y37506*
X130565*
G75*
G02X124469Y37481I-3058J2500*
G01*
X113671*
G75*
G02X105556Y40006I-3665J2525*
G01*
X104756*
G75*
G02X95256I-4750*
G01*
X94456*
G75*
G02X86342Y37481I-4450J0*
G01*
X75544*
G75*
G02X72506Y36056I-3037J2524*
G01*
G75*
G02X72144Y36073I-8J3801*
G01*
X68042Y31971*
G75*
G02X66253Y31231I-1785J1785*
G01*
X54294*
G75*
G02X47306Y33756I-3038J2525*
G01*
G75*
G02Y33765I3790J4*
G01*
G75*
G02X47323Y34119I3802*
G01*
X41435Y40006*
X6300*
Y20120*
G75*
G02X22115Y20006I7880J-3972*
G01*
X47194*
G75*
G02X55319I4062J-1250*
G01*
X68256*
G75*
G02X76756I4250*
G01*
X123256*
G75*
G02X131756I4250*
G01*
X153256*
G75*
G02X161756I4250*
G01*
X214905*
G75*
G02X230720Y20120I7936J-3858*
G01*
G37*
X41435Y40006D02*
G36*
X38221Y43221D01*
G75*
G02X37481Y45006I1786J1785*
G01*
Y45007*
Y45010*
Y59783*
G75*
G02X36056Y62821I2525J3038*
G01*
G75*
G02X36060Y62998I3950J1*
G01*
X33876*
X32506Y61628*
Y55006*
G75*
G02X31774Y53239I-2498J-1*
G01*
X24274Y45739*
G75*
G02X23897Y45429I-1774J1775*
G01*
G75*
G02X19475Y42620I-4422J2077*
G01*
X15538*
G75*
G02X10652Y47506J4886*
G01*
G75*
G02X15538Y52392I4886*
G01*
X19475*
G75*
G02X22669Y51204J-4886*
G01*
X27506Y56042*
Y62664*
G75*
G02Y62665I2820J0*
G01*
G75*
G02X27529Y62998I2498J0*
G01*
X20164*
Y62343*
G75*
G02X24361Y57506I-689J-4837*
G01*
G75*
G02X19475Y52620I-4886*
G01*
X15538*
G75*
G02X10652Y57506J4886*
G01*
G75*
G02X14849Y62343I4886*
G01*
Y62998*
X6300*
Y40006*
X41435*
G37*
X105556D02*
G36*
G75*
G02X107506Y43688I4451J0D01*
G01*
Y62998*
X106630*
G75*
G02X88382I-9124*
G01*
X65906*
G75*
G02X65910Y62821I-4246J-174*
G01*
G75*
G02X57410I-4250*
G01*
G75*
G02X57413Y62998I4250J4*
G01*
X43952*
G75*
G02X43956Y62821I-3946J-176*
G01*
G75*
G02X42531Y59783I-3950*
G01*
Y46052*
X48577Y40006*
X68556*
G75*
G02X75544Y42531I3950*
G01*
X86342*
G75*
G02X94456Y40006I3665J-2525*
G01*
X95256*
G75*
G02X104756I4750*
G01*
X105556*
G37*
X156042D02*
G36*
X230720D01*
Y62998*
X204130*
G75*
G02X185882I-9124*
G01*
X171630*
G75*
G02X153382I-9124*
G01*
X139130*
G75*
G02X120882I-9124*
G01*
X112506*
Y43688*
G75*
G02X113671Y42531I-2491J-3672*
G01*
X124469*
G75*
G02X130565Y42506I3038J-2525*
G01*
X152504*
G75*
G02X154274Y41774I3J-2499*
G01*
X156042Y40006*
G37*
X14849Y81502D02*
G36*
X6300D01*
Y62998*
X14849*
Y81502*
G37*
X107506D02*
G36*
X106330D01*
G75*
G02X88682I-8824*
G01*
X65480*
G75*
G02X57839I-3820J1004*
G01*
X56570*
X61481Y76610*
G75*
G02X61660Y76614I164J-3383*
G01*
G75*
G02X65610Y72664J-3950*
G01*
G75*
G02X61660Y68714I-3950*
G01*
G75*
G02X57710Y72664J3950*
G01*
G75*
G02X57715Y72859I4041*
G01*
X49039Y81502*
X43827*
G75*
G02X36186I-3820J1004*
G01*
X20164*
Y62998*
X27529*
G75*
G02X28239Y64431I2476J-334*
G01*
X36076Y72269*
G75*
G02X36056Y72656I3800J387*
G01*
G75*
G02Y72664I3759J4*
G01*
G75*
G02X43956I3950*
G01*
G75*
G02X40006Y68714I-3950*
G01*
G75*
G02X39611Y68733I-7J3818*
G01*
X33876Y62998*
X36060*
G75*
G02X40006Y66771I3946J-177*
G01*
G75*
G02X43952Y62998J-3950*
G01*
X57413*
G75*
G02X65906I4246J-177*
G01*
X88382*
G75*
G02X106630I9124*
G01*
X107506*
Y81502*
G37*
X145252D02*
G36*
G75*
G02X142752Y79002I-2500D01*
G01*
X138469*
G75*
G02X121182Y81502I-8463J2500*
G01*
X112506*
Y62998*
X120882*
G75*
G02X139130I9124*
G01*
X153382*
G75*
G02X171630I9124*
G01*
X185882*
G75*
G02X204130I9124*
G01*
X230720*
Y81502*
X203830*
G75*
G02X186182I-8824*
G01*
X171330*
G75*
G02X153682I-8824*
G01*
X145252*
G37*
X107506Y106442D02*
G36*
X103543D01*
G75*
G02X106330Y100006I-6037J-6436*
G01*
G75*
G02X88682I-8824*
G01*
G75*
G02X91469Y106442I8824*
G01*
X58955*
Y105057*
X51057*
Y106442*
X49256*
Y104756*
X40756*
Y106442*
X6300*
Y81502*
X14849*
Y87506*
G75*
G02X15628Y89387I2659J-1*
G01*
X18126Y91884*
G75*
G02X20006Y92664I1881J-1880*
G01*
X44269*
G75*
G02X46146Y91887I-1J-2660*
G01*
X56570Y81502*
X57839*
G75*
G02X57710Y82506I3820J1003*
G01*
G75*
G02X65610I3950*
G01*
G75*
G02X65480Y81502I-3950J-1*
G01*
X88682*
G75*
G02X106330I8824*
G01*
X107506*
Y106442*
G37*
X49039Y81502D02*
G36*
X43170Y87349D01*
X21107*
X20164Y86406*
Y81502*
X36186*
G75*
G02X36056Y82506I3820J1003*
G01*
G75*
G02X43956I3950*
G01*
G75*
G02X43827Y81502I-3950J-1*
G01*
X49039*
G37*
X145817Y106442D02*
G36*
X136043D01*
G75*
G02X138830Y100006I-6037J-6436*
G01*
G75*
G02X121182I-8824*
G01*
G75*
G02X123969Y106442I8824*
G01*
X112506*
Y81502*
X121182*
G75*
G02X138469Y84002I8824J0*
G01*
X142752*
G75*
G02X142846Y84001I0J-2789*
G01*
X145806Y86961*
Y106256*
G75*
G02X145817Y106442I1701J0*
G01*
G37*
X150096D02*
G36*
X149206Y105552D01*
Y86256*
G75*
G02X148708Y85054I-1701J1*
G01*
X145251Y81596*
G75*
G02X145252Y81503I-2788J-94*
G01*
Y81502*
X153682*
G75*
G02X171330I8824*
G01*
X186182*
G75*
G02X203830I8824*
G01*
X230720*
Y106442*
X201043*
G75*
G02X203830Y100006I-6037J-6436*
G01*
G75*
G02X186182I-8824*
G01*
G75*
G02X188969Y106442I8824*
G01*
X168543*
G75*
G02X171330Y100006I-6037J-6436*
G01*
G75*
G02X153682I-8824*
G01*
G75*
G02X156469Y106442I8824*
G01*
X150096*
G37*
X55102Y125006D02*
G36*
X6300D01*
Y106442*
X40756*
Y115256*
X49256*
Y106442*
X51057*
Y114955*
X53306*
Y122506*
G75*
G02X53804Y123708I1701J-1*
G01*
X55102Y125006*
G37*
X81056D02*
G36*
X68956D01*
Y125006*
G75*
G02X61441Y123306I-3950*
G01*
X58211*
X56706Y121802*
Y114955*
X58955*
Y106442*
X91469*
G75*
G02X103543I6037J-6436*
G01*
X107506*
Y121948*
G75*
G02X106969Y122481I2538J3096*
G01*
X88044*
G75*
G02X81056Y125006I-3038J2525*
G01*
G37*
X181160D02*
G36*
X169958Y113804D01*
G75*
G02X168754Y113306I-1202J1202*
G01*
X141907*
G75*
G02X137456Y115006I-1901J1700*
G01*
G75*
G02X141907Y116706I2550*
G01*
X168052*
X176352Y125006*
X134256*
G75*
G02X125756I-4250*
G01*
X113956*
Y125006*
G75*
G02X112506Y121948I-3950*
G01*
Y106442*
X123969*
G75*
G02X136043I6037J-6436*
G01*
X145817*
G75*
G02X146304Y107458I1691J-187*
G01*
X151304Y112458*
G75*
G02X152509Y112956I1202J-1202*
G01*
X171802*
X183852Y125006*
X181160*
G37*
X222818D02*
G36*
G75*
G02X218756Y122006I-4062J1250D01*
G01*
G75*
G02X214694Y125006J4250*
G01*
X212504*
G75*
G02X208756Y122306I-3747J1250*
G01*
G75*
G02X205009Y125006J3950*
G01*
X188661*
X173708Y110054*
G75*
G02X172504Y109556I-1202J1202*
G01*
X153211*
X150096Y106442*
X156469*
G75*
G02X168543I6037J-6436*
G01*
X188969*
G75*
G02X201043I6037J-6436*
G01*
X230720*
Y125006*
X222818*
G37*
X81056D02*
G36*
G75*
G02X82481Y128044I3951J0D01*
G01*
Y142446*
G75*
G02X81826Y144380I2525J1934*
G01*
X78187*
G75*
G02X71826I-3180*
G01*
X68187*
G75*
G02X61826I-3180*
G01*
X58187*
G75*
G02X51826I-3180*
G01*
X48187*
G75*
G02X41826I-3180*
G01*
X38187*
G75*
G02X31826I-3180*
G01*
X6300*
Y125006*
X55102*
X56304Y126208*
G75*
G02X57509Y126706I1202J-1202*
G01*
X61441*
G75*
G02X68956Y125007I3565J-1700*
G01*
Y125006*
X81056*
G37*
X195726Y144380D02*
G36*
X168187D01*
G75*
G02X161826I-3180*
G01*
X158187*
G75*
G02X151826I-3180*
G01*
X148187*
G75*
G02X141826I-3180*
G01*
X138187*
G75*
G02X131826I-3180*
G01*
X128187*
G75*
G02X121826I-3180*
G01*
X118187*
G75*
G02X111826I-3180*
G01*
X108487*
G75*
G02X101526I-3480*
G01*
X98187*
G75*
G02X91826I-3180*
G01*
X88187*
G75*
G02X87531Y142446I-3180*
G01*
Y128044*
G75*
G02X88044Y127531I-2523J-3036*
G01*
X106969*
G75*
G02X113956Y125006I3038J-2525*
G01*
X125756*
G75*
G02X134256I4250*
G01*
X176352*
X195726Y144380*
G37*
X223306D02*
G36*
X222233D01*
G75*
G02X218756Y142306I-3476J1876*
G01*
G75*
G02X215280Y144380I0J3950*
G01*
X212707*
Y142306*
X204806*
Y144380*
X200535*
X181160Y125006*
X183852*
X196304Y137458*
G75*
G02X197509Y137956I1202J-1202*
G01*
X205191*
G75*
G02X212706Y136257I3565J-1700*
G01*
Y136256*
Y136256*
G75*
G02X205191Y134556I-3950*
G01*
X198211*
X188661Y125006*
X205009*
G75*
G02X204806Y126256I3747J1250*
G01*
G75*
G02X208756Y130206I3950*
G01*
G75*
G02X210075Y129980I0J-3946*
G01*
X212554Y132458*
G75*
G02X213759Y132956I1202J-1202*
G01*
X216585*
G75*
G02X214806Y136256I2171J3300*
G01*
G75*
G02X218756Y140206I3950*
G01*
G75*
G02X222706Y136257J-3950*
G01*
G75*
G02X222448Y134853I-3950*
G01*
X223306Y135711*
Y144380*
G37*
X214694Y125006D02*
G36*
G75*
G02X214506Y126256I4063J1250D01*
G01*
G75*
G02X216078Y129556I4250*
G01*
X214461*
X212480Y127575*
G75*
G02X212706Y126256I-3724J-1319*
G01*
G75*
G02X212504Y125006I-3949J0*
G01*
X214694*
G37*
X226706Y144380D02*
G36*
Y135006D01*
G75*
G02X226208Y133804I-1701J1*
G01*
X222458Y130054*
G75*
G02X221424Y129565I-1202J1201*
G01*
G75*
G02X223006Y126256I-2668J-3308*
G01*
G75*
G02X222818Y125006I-4250J-1*
G01*
X230720*
Y144380*
X226706*
G37*
X47020Y169071D02*
G36*
X6300D01*
Y144380*
X31826*
G75*
G02X38187I3180*
G01*
X41826*
G75*
G02X43556Y147211I3181J-1*
G01*
Y165006*
G75*
G02Y165007I1961J0*
G01*
G75*
G02X43983Y166033I1449*
G01*
X47020Y169071*
G37*
X100501D02*
G36*
X98975D01*
X98708Y168804*
G75*
G02X96619Y168556I-1202J1202*
G01*
X50607*
X46456Y164406*
Y147211*
G75*
G02X48187Y144380I-1450J-2831*
G01*
X51826*
G75*
G02X58187I3180*
G01*
X61826*
G75*
G02X68187I3180*
G01*
X71826*
G75*
G02X78187I3180*
G01*
X81826*
G75*
G02X82481Y146314I3180*
G01*
Y160003*
Y160006*
Y160006*
G75*
G02X83221Y161792I2526*
G01*
X88221Y166792*
G75*
G02X90010Y167531I1785J-1785*
G01*
X98961*
X100501Y169071*
G37*
X215280Y144380D02*
G36*
G75*
G02X214806Y146256I3476J1876D01*
G01*
G75*
G02X217056Y149822I3950*
G01*
Y156802*
X207554Y166304*
G75*
G02X207056Y167506I1203J1203*
G01*
Y169071*
X205206*
G75*
G02X197306I-3950*
G01*
X177352*
G75*
G02X175006Y167481I-2345J935*
G01*
X106052*
X101792Y163221*
G75*
G02X100003Y162481I-1785J1785*
G01*
X91052*
X87531Y158961*
Y146314*
G75*
G02X88187Y144380I-2525J-1934*
G01*
X91826*
G75*
G02X98187I3180*
G01*
X101526*
G75*
G02X108487I3480*
G01*
X111826*
G75*
G02X118187I3180*
G01*
X121826*
G75*
G02X128187I3180*
G01*
X131826*
G75*
G02X138187I3180*
G01*
X141826*
G75*
G02X148187I3180*
G01*
X151826*
G75*
G02X158187I3180*
G01*
X161826*
G75*
G02X168187I3180*
G01*
X195726*
X198804Y147458*
G75*
G02X200009Y147956I1202J-1202*
G01*
X204806*
Y150207*
X212707*
Y144380*
X215280*
G37*
X204806D02*
G36*
Y144556D01*
X200711*
X200535Y144380*
X204806*
G37*
X223306D02*
G36*
Y158052D01*
X212554Y168804*
G75*
G02X212337Y169071I1203J1204*
G01*
X210456*
Y168211*
X219958Y158708*
G75*
G02X220456Y157506I-1203J-1203*
G01*
Y149822*
G75*
G02X222706Y146256I-1700J-3565*
G01*
G75*
G02X222233Y144380I-3950J0*
G01*
X223306*
G37*
X218660Y169071D02*
G36*
X217096D01*
X219241Y166925*
G75*
G02X218660Y169071I3671J2146*
G01*
G37*
X227160D02*
G36*
G75*
G02X220764Y165403I-4250D01*
G01*
X226208Y159958*
G75*
G02X226706Y158756I-1203J-1203*
G01*
Y144380*
X230720*
Y169071*
X227160*
G37*
X91526Y175632D02*
G36*
X88187D01*
G75*
G02X81826I-3180*
G01*
X78187*
G75*
G02X71826I-3180*
G01*
X68187*
G75*
G02X61826I-3180*
G01*
X58187*
G75*
G02X51826I-3180*
G01*
X48187*
G75*
G02X41826I-3180*
G01*
X38187*
G75*
G02X31826I-3180*
G01*
X6300*
Y169071*
X47020*
X48979Y171030*
G75*
G02X50006Y171456I1026J-1022*
G01*
X96552*
X98306Y173211*
Y174527*
G75*
G02X91526Y175632I-3300J1106*
G01*
G37*
X100501Y169071D02*
G36*
X102481Y171052D01*
Y173698*
G75*
G02X101826Y175632I2528J1935*
G01*
X101706*
Y172506*
G75*
G02X101208Y171304I-1701J1*
G01*
X98975Y169071*
X100501*
G37*
X111826Y175632D02*
G36*
X108187D01*
G75*
G02X107531Y173698I-3184J1*
G01*
Y172531*
X114301*
G75*
G02X111826Y175632I705J3101*
G01*
Y175632*
G37*
X121826D02*
G36*
X118187D01*
Y175632*
G75*
G02X115711Y172531I-3180*
G01*
X124301*
G75*
G02X121826Y175632I705J3101*
G01*
G37*
X131826D02*
G36*
X128187D01*
G75*
G02X125711Y172531I-3180*
G01*
X134301*
G75*
G02X131826Y175632I705J3101*
G01*
Y175632*
G37*
X141826D02*
G36*
X138187D01*
Y175632*
G75*
G02X135711Y172531I-3180*
G01*
X144301*
G75*
G02X141826Y175632I705J3101*
G01*
G37*
X151826D02*
G36*
X148187D01*
G75*
G02X145711Y172531I-3180*
G01*
X154301*
G75*
G02X151826Y175632I705J3101*
G01*
Y175632*
G37*
X161825D02*
G36*
X158187D01*
Y175632*
G75*
G02X155711Y172531I-3180*
G01*
X161825*
Y175632*
G37*
X172481D02*
G36*
X168187D01*
Y172531*
X172481*
Y175632*
G37*
X207056D02*
G36*
X203455D01*
G75*
G02X199057I-2199J3282*
G01*
X177531*
Y170006*
Y170006*
G75*
G02X177352Y169071I-2525J0*
G01*
X197306*
G75*
G02X205206I3950*
G01*
X207056*
Y175632*
G37*
X212337Y169071D02*
G36*
G75*
G02X212056Y170006I1421J935D01*
G01*
Y175632*
X210456*
Y169071*
X212337*
G37*
X225109Y175632D02*
G36*
G75*
G02X220711I-2199J3281D01*
G01*
X215456*
Y170711*
X217096Y169071*
X218660*
G75*
G02X227160I4250*
G01*
X230720*
Y175632*
X225109*
G37*
X71826D02*
G36*
Y175633D01*
G75*
G02X73306Y178320I3180*
G01*
Y181802*
X71802Y183306*
X67509*
G75*
G02X66304Y183804I-2J1700*
G01*
X63804Y186304*
G75*
G02X63306Y187506I1203J1203*
G01*
Y188756*
X6300*
Y175632*
X31826*
G75*
G02X38187I3180*
G01*
X41826*
G75*
G02X48187I3180*
G01*
X51826*
G75*
G02X58187I3180*
G01*
X61826*
G75*
G02X68187I3180*
G01*
X71826*
G37*
X101352Y188756D02*
G36*
X86706D01*
Y178320*
G75*
G02X88187Y175633I-1699J-2687*
G01*
Y175632*
X91526*
G75*
G02X98306Y176738I3480*
G01*
Y185006*
G75*
G02X98804Y186208I1701J-1*
G01*
X101352Y188756*
G37*
X81826Y175632D02*
G36*
Y175633D01*
G75*
G02X83306Y178320I3180*
G01*
Y188756*
X66706*
Y188211*
X68211Y186706*
X72504*
G75*
G02X73708Y186208I2J-1700*
G01*
X76208Y183708*
G75*
G02X76706Y182506I-1203J-1203*
G01*
Y178320*
G75*
G02X78187Y175633I-1699J-2687*
G01*
Y175632*
X81826*
G37*
X141259Y188756D02*
G36*
X133754D01*
G75*
G02X126441Y188306I-3747J1250*
G01*
X105711*
X101706Y184302*
Y175632*
X101826*
G75*
G02X108187I3180*
G01*
X111826*
G75*
G02X118187I3180*
G01*
X121826*
G75*
G02X123306Y178320I3180*
G01*
Y180006*
G75*
G02X123804Y181208I1701J-1*
G01*
X126304Y183708*
G75*
G02X127509Y184206I1202J-1202*
G01*
X141802*
X143306Y185711*
Y186441*
G75*
G02X141259Y188756I1700J3566*
G01*
G37*
X171259D02*
G36*
X170456D01*
Y185006*
G75*
G02X169958Y183804I-1701J1*
G01*
X166706Y180552*
Y178813*
X168187*
Y175632*
X172481*
Y186969*
G75*
G02X171259Y188756I2524J3038*
G01*
G37*
X156259D02*
G36*
X148754D01*
G75*
G02X146706Y186441I-3747J1250*
G01*
Y185006*
G75*
G02X146208Y183804I-1701J1*
G01*
X143708Y181304*
G75*
G02X142504Y180806I-1202J1202*
G01*
X128211*
X126706Y179302*
Y178320*
G75*
G02X128187Y175632I-1700J-2688*
G01*
X131826*
G75*
G02X138187I3180*
G01*
X141826*
G75*
G02X143306Y178320I3180*
G01*
Y180006*
G75*
G02X143804Y181208I1701J-1*
G01*
X146304Y183708*
G75*
G02X147509Y184206I1202J-1202*
G01*
X156802*
X158306Y185711*
Y186441*
G75*
G02X156259Y188756I1700J3566*
G01*
G37*
X167056D02*
G36*
X163754D01*
G75*
G02X161706Y186441I-3747J1250*
G01*
Y185006*
G75*
G02X161208Y183804I-1701J1*
G01*
X158708Y181304*
G75*
G02X157504Y180806I-1202J1202*
G01*
X148211*
X146706Y179302*
Y178320*
G75*
G02X148187Y175632I-1700J-2688*
G01*
X151826*
G75*
G02X158187I3180*
G01*
X161825*
Y178813*
X163306*
Y181256*
G75*
G02X163804Y182458I1701J-1*
G01*
X167056Y185711*
Y188756*
G37*
X207056D02*
G36*
X205206D01*
G75*
G02X197306I-3950*
G01*
X178754*
G75*
G02X177531Y186969I-3747J1250*
G01*
Y175632*
X199057*
G75*
G02X197306Y178914I2199J3281*
G01*
G75*
G02X205206I3950*
G01*
G75*
G02X203455Y175632I-3950*
G01*
X207056*
Y188756*
G37*
X212056D02*
G36*
X210456D01*
Y175632*
X212056*
Y188756*
G37*
X220711Y175632D02*
G36*
G75*
G02X219344Y177214I2199J3281D01*
G01*
X215456*
Y175632*
X220711*
G37*
X225109D02*
G36*
X230720D01*
Y188756*
X226860*
G75*
G02X218960I-3950*
G01*
X215456*
Y180614*
X219344*
G75*
G02X226860Y178914I3565J-1700*
G01*
Y178914*
Y178913*
G75*
G02X225109Y175632I-3950J0*
G01*
G37*
X63306Y188756D02*
G36*
Y191441D01*
G75*
G02X61056Y195006I1700J3565*
G01*
G75*
G02X61283Y196325I3950*
G01*
X58804Y198804*
G75*
G02X58306Y200006I1203J1203*
G01*
Y203941*
G75*
G02X56056Y207506I1700J3565*
G01*
X21086*
G75*
G02X7273I-6907J5492*
G01*
X6300*
Y188756*
X63306*
G37*
X86056Y207506D02*
G36*
X84256D01*
G75*
G02X75756I-4250*
G01*
X74256*
G75*
G02X65756I-4250*
G01*
X63956*
G75*
G02X61706Y203941I-3950*
G01*
Y200711*
X63687Y198730*
G75*
G02X68956Y195006I1319J-3723*
G01*
G75*
G02X66706Y191441I-3950*
G01*
Y188756*
X83306*
Y191441*
G75*
G02X81056Y195006I1700J3565*
G01*
G75*
G02X86325Y198730I3950*
G01*
X88306Y200711*
Y203941*
G75*
G02X86056Y207506I1700J3565*
G01*
G37*
X156948D02*
G36*
X148065D01*
G75*
G02X145006Y206056I-3058J2500*
G01*
G75*
G02X141948Y207506J3950*
G01*
X137956*
Y204461*
X140711Y201706*
X156802*
X158306Y203211*
Y206441*
G75*
G02X156948Y207506I1700J3566*
G01*
G37*
X170102D02*
G36*
X163065D01*
G75*
G02X161706Y206441I-3058J2500*
G01*
Y202506*
G75*
G02X161208Y201304I-1701J1*
G01*
X158708Y198804*
G75*
G02X157504Y198306I-1202J1202*
G01*
X140009*
G75*
G02X138804Y198804I-2J1700*
G01*
X135054Y202554*
G75*
G02X134556Y203756I1203J1203*
G01*
Y207506*
X133065*
G75*
G02X126948I-3058J2500*
G01*
X93956*
G75*
G02X91706Y203941I-3950*
G01*
Y200006*
G75*
G02X91208Y198804I-1701J1*
G01*
X88730Y196325*
G75*
G02X88956Y195006I-3724J-1319*
G01*
G75*
G02X86706Y191441I-3950J0*
G01*
Y188756*
X101352*
X103804Y191208*
G75*
G02X105009Y191706I1202J-1202*
G01*
X126441*
G75*
G02X133956Y190007I3565J-1700*
G01*
Y190006*
Y190006*
G75*
G02X133754Y188756I-3950J0*
G01*
X141259*
G75*
G02X141056Y190006I3747J1249*
G01*
G75*
G02X145006Y193956I3950*
G01*
G75*
G02X148956Y190006J-3950*
G01*
G75*
G02X148754Y188756I-3950J-1*
G01*
X156259*
G75*
G02X156056Y190006I3747J1249*
G01*
G75*
G02X160006Y193956I3950*
G01*
G75*
G02X163956Y190006J-3950*
G01*
G75*
G02X163754Y188756I-3950J-1*
G01*
X167056*
Y203756*
G75*
G02X167554Y204958I1701J-1*
G01*
X170102Y207506*
G37*
X207056Y188756D02*
G36*
Y201802D01*
X205552Y203306*
X180711*
X176706Y199302*
Y193572*
G75*
G02X178956Y190006I-1700J-3565*
G01*
G75*
G02X178754Y188756I-3950J-1*
G01*
X197306*
G75*
G02X205206I3950*
G01*
X207056*
G37*
X212056D02*
G36*
Y205552D01*
X210102Y207506*
X178065*
G75*
G02X173687Y206283I-3058J2500*
G01*
X170456Y203052*
Y188756*
X171259*
G75*
G02X171056Y190006I3747J1249*
G01*
G75*
G02X173306Y193572I3950*
G01*
Y200006*
G75*
G02X173804Y201208I1701J-1*
G01*
X178804Y206208*
G75*
G02X180009Y206706I1202J-1202*
G01*
X206254*
G75*
G02X207458Y206208I2J-1700*
G01*
X209958Y203708*
G75*
G02X210456Y202506I-1203J-1203*
G01*
Y188756*
X212056*
G37*
X215456D02*
G36*
X218960D01*
G75*
G02X226860I3950*
G01*
X230720*
Y207506*
X229748*
G75*
G02X215934I-6907J5492*
G01*
X214910*
X214958Y207458*
G75*
G02X215456Y206256I-1203J-1203*
G01*
Y188756*
G37*
X7273Y207506D02*
G36*
G75*
G02X6300Y209026I6907J5492D01*
G01*
Y207506*
X7273*
G37*
X134556D02*
G36*
Y230552D01*
X133052Y232056*
X128791*
G75*
G02X125999Y232249I-1285J1700*
G01*
X122244Y236005*
G75*
G02X118864Y237875I6J4000*
G01*
X116661*
G75*
G02X109887I-3387J2131*
G01*
X107684*
G75*
G02X100296Y240006I-3387J2131*
G01*
X74597*
G75*
G02X70794Y239307I-3803J9999*
G01*
G75*
G02X66990Y240006I0J10698*
G01*
X45420*
Y236620*
Y236620*
G75*
G02X39770Y230970I-5650*
G01*
X6300*
Y216970*
G75*
G02X23004Y212998I7880J-3972*
G01*
G75*
G02X21086Y207506I-8824*
G01*
X56056*
G75*
G02X63956I3950*
G01*
X65756*
G75*
G02X74256I4250*
G01*
X75756*
G75*
G02X84256I4250*
G01*
X86056*
G75*
G02X93956I3950*
G01*
X126948*
G75*
G02X126056Y210006I3058J2500*
G01*
G75*
G02X133956I3950*
G01*
G75*
G02X133065Y207506I-3950*
G01*
X134556*
G37*
X141948D02*
G36*
G75*
G02X141056Y210006I3058J2500D01*
G01*
G75*
G02X143306Y213572I3950*
G01*
Y213756*
G75*
G02X143804Y214958I1701J-1*
G01*
X144556Y215711*
Y240006*
X144504*
G75*
G02X135902I-4301*
G01*
X135228*
G75*
G02X131227Y236005I-4001*
G01*
G75*
G02X127226Y240006J4001*
G01*
X126252*
G75*
G02X125903Y238373I-4002*
G01*
X128820Y235456*
X133754*
G75*
G02X134958Y234958I2J-1700*
G01*
X137458Y232458*
G75*
G02X137956Y231256I-1203J-1203*
G01*
Y207506*
X141948*
G37*
X230720Y230970D02*
G36*
X197250D01*
G75*
G02X191600Y236620J5650*
G01*
Y236620*
Y240006*
X173022*
G75*
G02X169219Y239307I-3803J9999*
G01*
G75*
G02X165415Y240006I0J10698*
G01*
X147956*
Y215006*
G75*
G02X147458Y213804I-1701J1*
G01*
X147044Y213390*
G75*
G02X148956Y210006I-2038J-3384*
G01*
G75*
G02X148065Y207506I-3950*
G01*
X156948*
G75*
G02X156056Y210006I3058J2500*
G01*
G75*
G02X163956I3950*
G01*
G75*
G02X163065Y207506I-3950*
G01*
X170102*
X171283Y208687*
G75*
G02X171056Y210006I3724J1319*
G01*
G75*
G02X178572Y211706I3950*
G01*
X210004*
G75*
G02X211208Y211208I2J-1700*
G01*
X214910Y207506*
X215934*
G75*
G02X214017Y212998I6907J5492*
G01*
G75*
G02X230720Y216970I8824*
G01*
Y230970*
G37*
X210102Y207506D02*
G36*
X209302Y208306D01*
X178572*
G75*
G02X178065Y207506I-3565J1699*
G01*
X210102*
G37*
X230720Y209026D02*
G36*
G75*
G02X229748Y207506I-7880J3972D01*
G01*
X230720*
Y209026*
G37*
X60095Y250006D02*
G36*
X45420D01*
Y240006*
X66990*
G75*
G02X60095Y250006I3803J10000*
G01*
Y250006*
G37*
X144556D02*
G36*
X140016D01*
G75*
G02X131414I-4301*
G01*
X130740*
G75*
G02X126739Y246005I-4001*
G01*
G75*
G02X122737Y250006J4001*
G01*
X122063*
G75*
G02X113461I-4301*
G01*
X113087*
G75*
G02X104485I-4301*
G01*
X104111*
G75*
G02X95508I-4301*
G01*
X81493*
Y250006*
G75*
G02X74597Y240006I-10698*
G01*
X100296*
G75*
G02X107684Y242137I4002J0*
G01*
X109887*
G75*
G02X116661I3387J-2131*
G01*
X118864*
G75*
G02X126252Y240006I3387J-2131*
G01*
X127226*
G75*
G02X131227Y244007I4001*
G01*
G75*
G02X135228Y240006J-4001*
G01*
X135902*
G75*
G02X144504I4301*
G01*
X144556*
Y250006*
G37*
X158520D02*
G36*
X147956D01*
Y240006*
X165415*
G75*
G02X158520Y250006I3803J10000*
G01*
Y250006*
G37*
X191600D02*
G36*
X179918D01*
Y250006*
G75*
G02X173022Y240006I-10698*
G01*
X191600*
Y250006*
G37*
X60095D02*
G36*
Y250007D01*
G75*
G02X66990Y260006I10698*
G01*
X45420*
Y250006*
X60095*
G37*
X144556Y260006D02*
G36*
X144204D01*
G75*
G02X140203Y256005I-4001*
G01*
G75*
G02X136202Y260006J4001*
G01*
X135228*
G75*
G02X131227Y256005I-4001*
G01*
G75*
G02X127226Y260006J4001*
G01*
X126252*
G75*
G02X122250Y256005I-4001*
G01*
G75*
G02X118249Y260006J4001*
G01*
X117275*
G75*
G02X113274Y256005I-4001*
G01*
G75*
G02X109273Y260006J4001*
G01*
X108299*
G75*
G02X104298Y256005I-4001*
G01*
G75*
G02X100296Y260006J4001*
G01*
X74597*
G75*
G02X81493Y250007I-3803J-10000*
G01*
Y250006*
X95508*
G75*
G02X104111I4301*
G01*
X104485*
G75*
G02X113087I4301*
G01*
X113461*
G75*
G02X122063I4301*
G01*
X122737*
G75*
G02X126739Y254007I4001*
G01*
G75*
G02X130740Y250006J-4001*
G01*
X131414*
G75*
G02X140016I4301*
G01*
X144556*
Y260006*
G37*
X158520Y250006D02*
G36*
Y250007D01*
G75*
G02X165415Y260006I10698*
G01*
X147956*
Y250006*
X158520*
G37*
X191600Y260006D02*
G36*
X173022D01*
G75*
G02X179918Y250007I-3803J-10000*
G01*
Y250006*
X191600*
Y260006*
G37*
X144556D02*
G36*
Y263022D01*
X143022Y264556*
X136320*
X134315Y262551*
G75*
G02X135228Y260006I-3088J-2544*
G01*
X136202*
G75*
G02X140203Y264007I4001*
G01*
G75*
G02X144204Y260006J-4001*
G01*
X144556*
G37*
X191600Y270091D02*
G36*
X45420D01*
Y260006*
X66990*
G75*
G02X70794Y260705I3803J-9999*
G01*
G75*
G02X74597Y260006I0J-10698*
G01*
X100296*
G75*
G02X104298Y264007I4001*
G01*
G75*
G02X108299Y260006J-4001*
G01*
X109273*
G75*
G02X113274Y264007I4001*
G01*
G75*
G02X117275Y260006J-4001*
G01*
X118249*
G75*
G02X122250Y264007I4001*
G01*
G75*
G02X126252Y260006J-4001*
G01*
X127226*
G75*
G02X129393Y263563I4001*
G01*
G75*
G02X129720Y263984I1823J-1076*
G01*
X133499Y267763*
G75*
G02X136291Y267956I1507J-1507*
G01*
X143724*
G75*
G02X144929Y267458I2J-1700*
G01*
X147458Y264929*
G75*
G02X147956Y263727I-1203J-1203*
G01*
Y260006*
X165415*
G75*
G02X169219Y260705I3803J-9999*
G01*
G75*
G02X173022Y260006I0J-10698*
G01*
X191600*
Y270091*
G37*
D02*
D11*
X42506Y110006D02*
X40506D01*
X45006Y106506D02*
Y104506D01*
Y113506D02*
Y115506D01*
X47506Y110006D02*
X49506D01*
X48756Y18756D02*
X46756D01*
X51256Y16256D02*
Y14256D01*
Y21256D02*
Y23256D01*
X53756Y18756D02*
X55756D01*
X59160Y62821D02*
X57160D01*
X61660Y60321D02*
Y58321D01*
Y65321D02*
Y67321D01*
X61845Y250006D02*
X59845D01*
X64160Y62821D02*
X66160D01*
X67506Y207506D02*
X65506D01*
X70006Y20006D02*
X68006D01*
X70006Y205006D02*
Y203006D01*
Y210006D02*
Y212006D01*
X70794Y241057D02*
Y239057D01*
Y258955D02*
Y260955D01*
X72506Y17506D02*
Y15506D01*
Y22506D02*
Y24506D01*
Y207506D02*
X74506D01*
X75006Y20006D02*
X77006D01*
X77506Y207506D02*
X75506D01*
X79743Y250006D02*
X81743D01*
X80006Y205006D02*
Y203006D01*
Y210006D02*
Y212006D01*
X82506Y207506D02*
X84506D01*
X90132Y62998D02*
X88132D01*
X93783Y174409D02*
X92369Y172994D01*
X93783Y176856D02*
X92369Y178270D01*
X96230Y174409D02*
X97644Y172994D01*
X96230Y176856D02*
X97644Y178270D01*
X97006Y40006D02*
X95006D01*
X97506Y55624D02*
Y53624D01*
Y70372D02*
Y72372D01*
Y170006D02*
X50006D01*
X45006Y165006*
Y144380*
X98006Y248202D02*
X96591Y246788D01*
X98006Y251810D02*
X96591Y253224D01*
X100006Y37006D02*
Y35006D01*
Y43006D02*
Y45006D01*
X101613Y248202D02*
X103028Y246788D01*
X101613Y251810D02*
X103028Y253224D01*
X103006Y40006D02*
X105006D01*
X103276Y144380D02*
X101276D01*
X104880Y62998D02*
X106880D01*
X105006Y142650D02*
Y140650D01*
Y146111D02*
Y148111D01*
X106737Y144380D02*
X108737D01*
X106982Y248202D02*
X105568Y246788D01*
X106982Y251810D02*
X105568Y253224D01*
X110590Y248202D02*
X112004Y246788D01*
X110590Y251810D02*
X112004Y253224D01*
X115958Y248202D02*
X114544Y246788D01*
X115958Y251810D02*
X114544Y253224D01*
X119566Y248202D02*
X120980Y246788D01*
X119566Y251810D02*
X120980Y253224D01*
X122632Y62998D02*
X120632D01*
X125006Y20006D02*
X123006D01*
X127506Y17506D02*
Y15506D01*
Y22506D02*
Y24506D01*
Y125006D02*
X125506D01*
X130006Y20006D02*
X132006D01*
X130006Y55624D02*
Y53624D01*
Y70372D02*
Y72372D01*
Y122506D02*
Y120506D01*
Y127506D02*
Y129506D01*
X132506Y125006D02*
X134506D01*
X133164Y250006D02*
X131164D01*
X135715Y247455D02*
Y245455D01*
Y252557D02*
Y254557D01*
X137380Y62998D02*
X139380D01*
X138266Y250006D02*
X140266D01*
X138399Y238202D02*
X136985Y236788D01*
X138399Y241810D02*
X136985Y243224D01*
X142007Y238202D02*
X143421Y236788D01*
X142007Y241810D02*
X143421Y243224D01*
X155006Y20006D02*
X153006D01*
X155132Y62998D02*
X153132D01*
X157506Y17506D02*
Y15506D01*
Y22506D02*
Y24506D01*
X160006Y20006D02*
X162006D01*
X160270Y250006D02*
X158270D01*
X162506Y55624D02*
Y53624D01*
Y70372D02*
Y72372D01*
X169219Y241057D02*
Y239057D01*
Y258955D02*
Y260955D01*
X169880Y62998D02*
X171880D01*
X178168Y250006D02*
X180168D01*
X187632Y62998D02*
X185632D01*
X195006Y55624D02*
Y53624D01*
Y70372D02*
Y72372D01*
X202380Y62998D02*
X204380D01*
X216256Y126256D02*
X214256D01*
X218756Y123756D02*
Y121756D01*
X220410Y169071D02*
X218410D01*
X221256Y126256D02*
X223256D01*
X222910Y166571D02*
Y164571D01*
Y171571D02*
Y173571D01*
X225410Y169071D02*
X227410D01*
D02*
D14*
X40006Y62821D03*
Y72664D03*
Y82506D03*
X51256Y18756D03*
Y33756D03*
X60006Y207506D03*
X61660Y62821D03*
Y72664D03*
Y82506D03*
X65006Y125006D03*
Y195006D03*
X70006Y207506D03*
X72506Y20006D03*
Y40006D03*
X80006Y207506D03*
X85006Y125006D03*
Y195006D03*
X90006Y207506D03*
X110006Y125006D03*
X127506Y20006D03*
Y40006D03*
X130006Y125006D03*
Y190006D03*
Y210006D03*
X145006Y190006D03*
Y210006D03*
X157506Y20006D03*
Y35006D03*
X160006Y190006D03*
Y210006D03*
X175006Y190006D03*
Y210006D03*
X201256Y169071D03*
Y178914D03*
Y188756D03*
X208756Y126256D03*
Y136256D03*
X218756Y126256D03*
Y136256D03*
Y146256D03*
X222910Y169071D03*
Y178914D03*
Y188756D03*
D02*
D23*
X140006Y115006D03*
D02*
D24*
X400Y400D02*
X236620D01*
Y236620*
X197250*
Y275991*
X39770*
Y236620*
X400*
Y400*
D02*
D26*
X60006Y207506D02*
Y200006D01*
X65006Y195006*
Y125006D02*
X57506D01*
X55006Y122506*
Y110006*
X65006Y195006D02*
Y187506D01*
X67506Y185006*
X72506*
X75006Y182506*
Y175632*
X85006Y195006D02*
Y175632D01*
X90006Y207506D02*
Y200006D01*
X85006Y195006*
X97506Y170006D02*
X100006Y172506D01*
Y185006*
X105006Y190006*
X130006*
X125006Y175632D02*
Y180006D01*
X127506Y182506*
X142506*
X145006Y185006*
Y190006*
X127506Y233756D02*
X133756D01*
X136256Y231256*
Y203756*
X140006Y200006*
X157506*
X160006Y202506*
Y210006*
X142752Y81502D02*
X147506Y86256D01*
Y106256*
X152506Y111256*
X172506*
X197506Y136256*
X208756*
X145006Y175632D02*
Y180006D01*
X147506Y182506*
X157506*
X160006Y185006*
Y190006*
X145006Y210006D02*
Y213756D01*
X146256Y215006*
Y263727*
X143727Y266256*
X135006*
X165006Y175632D02*
Y181256D01*
X168756Y185006*
Y203756*
X175006Y210006*
Y190006D02*
Y200006D01*
X180006Y205006*
X206256*
X208756Y202506*
Y167506*
X218756Y157506*
Y146256*
X175006Y210006D02*
X210006D01*
X213756Y206256*
Y178914*
X208756Y146256D02*
X200006D01*
X168756Y115006*
X140006*
X213756Y178914D02*
Y170006D01*
X225006Y158756*
Y135006*
X221256Y131256*
X213756*
X208756Y126256*
X213756Y178914D02*
X222910D01*
D02*
D85*
X14180Y16148D03*
Y212998D03*
X97506Y62998D03*
Y81502D03*
Y100006D03*
X130006Y62998D03*
Y81502D03*
Y100006D03*
X162506Y62998D03*
Y81502D03*
Y100006D03*
X195006Y62998D03*
Y81502D03*
Y100006D03*
X222841Y16148D03*
Y212998D03*
D02*
D86*
X99809Y250006D03*
X104298Y240006D03*
Y260006D03*
X108786Y250006D03*
X113274Y240006D03*
Y260006D03*
X117762Y250006D03*
X122250Y240006D03*
Y260006D03*
X126739Y250006D03*
X131227Y240006D03*
Y260006D03*
X135715Y250006D03*
X140203Y240006D03*
Y260006D03*
D02*
D87*
X70794Y250006D03*
X169219D03*
D02*
D88*
X165006Y175632D03*
D02*
D89*
X35006Y144380D03*
Y175632D03*
X45006Y144380D03*
Y175632D03*
X55006Y144380D03*
Y175632D03*
X65006Y144380D03*
Y175632D03*
X75006Y144380D03*
Y175632D03*
X85006Y144380D03*
Y175632D03*
X95006Y144380D03*
Y175632D03*
X105006Y144380D03*
Y175632D03*
X115006Y144380D03*
Y175632D03*
X125006Y144380D03*
Y175632D03*
X135006Y144380D03*
Y175632D03*
X145006Y144380D03*
Y175632D03*
X155006Y144380D03*
Y175632D03*
X165006Y144380D03*
D02*
D90*
X45006Y110006D03*
X55006D03*
D02*
D91*
X17506Y47506D03*
Y57506D03*
D02*
D92*
X90006Y40006D03*
X100006D03*
X110006D03*
D02*
D95*
X40006Y62821D02*
Y45006D01*
X51256Y33756*
X66256*
X72506Y40006*
X90006*
X85006Y125006D02*
Y144380D01*
X105006Y170006D02*
X175006D01*
Y190006*
X105006Y170006D02*
X100006Y165006D01*
X90006*
X85006Y160006*
Y144380*
X105006Y175632D02*
Y170006D01*
X110006Y125006D02*
X85006D01*
X127506Y40006D02*
X110006D01*
D02*
D96*
X104298Y240006D02*
X122250D01*
Y239012*
X127506Y233756*
X135006Y266256D02*
X131227Y262477D01*
Y260006*
D02*
D110*
X208756Y146256D03*
D02*
D111*
X17506Y47506D02*
X22506D01*
X30006Y55006*
Y62664*
X40006Y72664*
X17506Y57506D02*
Y87506D01*
X20006Y90006*
X20071Y90071*
X44269*
X61660Y72680*
Y72664*
X110006Y40006D02*
Y125006D01*
X127506Y40006D02*
X148756D01*
X152506*
X157506Y35006*
X130006Y81502D02*
X142752D01*
X0Y0D02*
M02*
